<svg xmlns="http://www.w3.org/2000/svg" xmlns:xlink="http://www.w3.org/1999/xlink" width="347.025" height="186.011" viewBox="0 0 347.025 186.011">
  <defs>
    <filter id="Ellipse_14" x="58.827" y="14.101" width="68" height="68" filterUnits="userSpaceOnUse">
      <feOffset input="SourceAlpha"/>
      <feGaussianBlur stdDeviation="7.5" result="blur"/>
      <feFlood flood-color="#db4137"/>
      <feComposite operator="in" in2="blur"/>
      <feComposite in="SourceGraphic"/>
    </filter>
    <linearGradient id="linear-gradient" x1="0.5" x2="0.5" y2="1" gradientUnits="objectBoundingBox">
      <stop offset="0" stop-color="#9566f2"/>
      <stop offset="1" stop-color="#612fa0"/>
    </linearGradient>
    <filter id="Path_20" x="165.45" y="0" width="181.575" height="186.011" filterUnits="userSpaceOnUse">
      <feOffset input="SourceAlpha"/>
      <feGaussianBlur stdDeviation="7.5" result="blur-2"/>
      <feFlood flood-color="#b76bfd"/>
      <feComposite operator="in" in2="blur-2"/>
      <feComposite in="SourceGraphic"/>
    </filter>
    <linearGradient id="linear-gradient-2" x1="0.5" x2="0.5" y2="1" gradientUnits="objectBoundingBox">
      <stop offset="0" stop-color="#c587ff"/>
      <stop offset="1" stop-color="#8a3cd1"/>
    </linearGradient>
  </defs>
  <g id="logo_movies" data-name="logo movies" transform="translate(-61.673 -276.399)">
    <path id="Path_28" data-name="Path 28" d="M11.673,0V-109.91h15.3V0ZM58.508,0V-54.158a14.207,14.207,0,0,0-1.849-7.613,6.369,6.369,0,0,0-5.836-2.973,9.076,9.076,0,0,0-2.646.326,27.969,27.969,0,0,1-3.009.689,11.212,11.212,0,0,1-7.141-.689,18.093,18.093,0,0,1-5.981-4.821A58.759,58.759,0,0,1,44.769-75.11a33.8,33.8,0,0,1,9.1-1.45,22.648,22.648,0,0,1,10.005,2.247A16.831,16.831,0,0,1,71.3-66.99Q74.1-61.915,74.1-53.215V0ZM96.643,0V-74.965H112.3V0Zm67.28,1.668q-12.4,0-18.995-7.794t-6.6-21.859V-63.8H125.353v-7.83l12.978-3.335V-93.743l14.5-4.64v71.558q0,7.467,3.19,12.253a9.7,9.7,0,0,0,8.41,4.785,30.335,30.335,0,0,0,5.329-.471,48.856,48.856,0,0,0,6.416-1.7l3.48,10.223Q174.145.072,170.774.87A29.661,29.661,0,0,1,163.923,1.668ZM170.81-63.8a11.366,11.366,0,0,1-6.126-1.559,12.978,12.978,0,0,1-4.132-4.132,24.1,24.1,0,0,1-2.574-5.474h20.59V-63.8Z" transform="translate(50 422)" fill="#fecc6d"/>
    <g transform="matrix(1, 0, 0, 1, 61.67, 276.4)" filter="url(#Ellipse_14)">
      <circle id="Ellipse_14-2" data-name="Ellipse 14" cx="11.5" cy="11.5" r="11.5" transform="translate(81.33 36.6)" fill="#8d3fd4"/>
    </g>
    <g id="play" transform="translate(0 -4)">
      <g transform="matrix(1, 0, 0, 1, 61.67, 280.4)" filter="url(#Path_20)">
        <path id="Path_20-2" data-name="Path 20" d="M70.184,0l23.1,13.429,47.731,84.484v27.448L118.1,136.575H23.115L0,125.361V97.913L46.5,13.429Z" transform="translate(324.52 22.5) rotate(90)" fill="url(#linear-gradient)"/>
      </g>
      <path id="Path_21" data-name="Path 21" d="M47.648,0l15.68,9.117,32.4,61.77V89.521L80.178,97.135H15.693L0,89.521V70.887L31.571,9.117Z" transform="translate(363.972 325.411) rotate(90)" fill="url(#linear-gradient-2)"/>
      <path id="Path_22" data-name="Path 22" d="M759.8,303.092l13.551,22.5h18.666l-4.73-22.5Z" transform="translate(-499 -0.185)" fill="#6d5ff2"/>
      <path id="Path_23" data-name="Path 23" d="M749.57,326l11.246-23.064,13.6,22.564-7.569,15.709Z" transform="translate(-500)" fill="#6d47da"/>
      <path id="Path_24" data-name="Path 24" d="M749.609,421l17.2-15.505,7.684,15.648-13.678,22.8Z" transform="translate(-500)" fill="#6d47da"/>
      <path id="Path_25" data-name="Path 25" d="M793.085,421.143H774.469l-13.678,22.825,27.515-.053Z" transform="translate(-500)" fill="#6d5ff2"/>
      <path id="Path_26" data-name="Path 26" d="M854.8,356.933l17.956-7.552L886.22,373.12H863.986Z" transform="translate(-500)" fill="#9365fe"/>
      <path id="Path_27" data-name="Path 27" d="M854.849,388.753l9.163-15.632h22.181l-13.388,23.105Z" transform="translate(-500)" fill="#8468f1"/>
    </g>
  </g>
</svg>
